<?xml version="1.0" encoding="UTF-8"?>
<svg version="1.1" xmlns="http://www.w3.org/2000/svg" width="843" height="596">
<path d="M0 0 C5 3 5 3 9 9 C9.928125 8.690625 10.85625 8.38125 11.8125 8.0625 C21.14277367 5.45826699 29.59742758 6.01446551 39 8 C40.62715156 8.95467564 42.25165346 9.91386848 43.875 10.875 C44.77992188 11.40867187 45.68484375 11.94234375 46.6171875 12.4921875 C49 14 49 14 51 16 C51.33 13.69 51.66 11.38 52 9 C62.56 9 73.12 9 84 9 C85.04842129 13.19368516 85.15503441 17.01212216 85.16113281 21.29418945 C85.16858017 22.54639534 85.16858017 22.54639534 85.17617798 23.82389832 C85.19078367 26.5870344 85.19760258 29.35011288 85.203125 32.11328125 C85.20888224 34.04461161 85.2146399 35.97594198 85.22039795 37.90727234 C85.23090651 41.96333074 85.23674865 46.01936936 85.24023438 50.07543945 C85.24568777 55.23506089 85.26964828 60.39441425 85.29820633 65.55395222 C85.31698205 69.54950173 85.32204641 73.54498897 85.32357025 77.54057884 C85.32656893 79.4400903 85.33450141 81.3396014 85.34775543 83.23906898 C85.47848326 103.4324385 83.68964588 119.90939605 69 135 C66.86037192 136.13829431 64.71441001 137.26034158 62.5625 138.375 C61.97017578 138.69210937 61.37785156 139.00921875 60.76757812 139.3359375 C51.993866 143.84008918 43.43269138 144.34204879 33.6875 144.3125 C32.63626953 144.32861328 31.58503906 144.34472656 30.50195312 144.36132812 C13.04065056 144.37206033 -0.68675994 138.2587567 -13 126 C-13.82275672 124.46378265 -14.63272577 122.92071368 -15.4375 121.375 C-15.88996094 120.51648438 -16.34242188 119.65796875 -16.80859375 118.7734375 C-18.07204182 115.83229608 -18.59623259 113.16516521 -19 110 C-6.65141462 109.28488027 5.63051353 108.85579614 18 109 C19.485 111.475 19.485 111.475 21 114 C28.4158037 117.72218538 28.4158037 117.72218538 39 117 C44.50613849 114.24693075 47.49320219 112.48446994 50 106.6875 C51.33945668 101.74825349 51.16287658 97.08536891 51 92 C50.27296875 92.59748047 50.27296875 92.59748047 49.53125 93.20703125 C39.82502771 100.87868002 29.72173846 103.02180434 17.3984375 101.7265625 C4.86448967 99.85529705 -5.17539199 93.7007449 -12.85546875 83.546875 C-19.04137887 73.83270503 -20.44865472 64.35613771 -20.51171875 52.9921875 C-20.52966995 51.7855545 -20.54762115 50.57892151 -20.56611633 49.33572388 C-20.61991225 45.51551719 -20.65401701 41.69543324 -20.6875 37.875 C-20.7207001 35.27081637 -20.75519222 32.66664887 -20.79101562 30.0625 C-21.04367329 11.08734658 -21.04367329 11.08734658 -17 3 C-10.46349274 -1.90238045 -8.69497108 -0.9661079 0 0 Z M17 42 C13.17594101 47.93388463 13.89619328 48.03806715 13 57 C16.06130261 65.16347364 18.44582778 68.89916365 26 73 C35.2812894 74.16016117 40.70403489 73.47197383 48 68 C51.42460063 63.02880553 53.14099085 59.8562958 53.0625 53.8125 C53.05347656 52.91144531 53.04445313 52.01039063 53.03515625 51.08203125 C53.13003966 47.81991562 53.13003966 47.81991562 49 41 C38.33293399 32.11077832 27.34611762 31.17266761 17 42 Z " fill="#204B9B" transform="translate(460,250)"/>
<path d="M0 0 C1.85431641 0.0165564 1.85431641 0.0165564 3.74609375 0.03344727 C5.35677734 0.04782837 5.35677734 0.04782837 7 0.0625 C7.97317794 17.16232128 8.1323678 34.21155541 8.09765625 51.3359375 C8.09522052 54.08460462 8.09431566 56.83327171 8.09336853 59.5819397 C8.09029557 66.0127551 8.08213831 72.44355292 8.07201904 78.87436068 C8.06073038 86.21209275 8.05531576 93.54982579 8.05032361 100.88756442 C8.03995091 115.9458876 8.02165753 131.00418802 8 146.0625 C-2.56 146.0625 -13.12 146.0625 -24 146.0625 C-24.33 143.4225 -24.66 140.7825 -25 138.0625 C-27.64 140.3725 -30.28 142.6825 -33 145.0625 C-45.28045097 149.84979445 -56.36885829 150.53250189 -69 146.0625 C-82.04433409 140.09500405 -89.75942156 130.07461805 -95 117.0625 C-99.33427362 103.86618479 -97.5073073 89.4299186 -91.875 76.9375 C-85.96811951 65.97009802 -77.02613096 58.4225007 -65.375 54.1875 C-53.94519153 51.18627671 -42.77102613 52.49297376 -32 57.0625 C-30.02 58.7125 -28.04 60.3625 -26 62.0625 C-25.67 41.9325 -25.34 21.8025 -25 1.0625 C-7 -0.0625 -7 -0.0625 0 0 Z M-59.53125 89.171875 C-63.91885088 94.81974421 -63 98.46188229 -63 106.0625 C-58.81117105 114.44015791 -57.3916429 116.70584284 -49 120.0625 C-37.39695333 120.19794691 -37.39695333 120.19794691 -29 115.0625 C-24.75037854 110.28167586 -23.86925845 107.22146412 -23.9375 100.875 C-23.94652344 99.78832031 -23.95554687 98.70164062 -23.96484375 97.58203125 C-23.8277859 94.32020094 -23.8277859 94.32020094 -27 89.0625 C-34.18086773 82.76923106 -34.18086773 82.76923106 -42.8125 80.75 C-50.22001486 81.47622695 -54.787127 83.66690209 -59.53125 89.171875 Z " fill="#204B9B" transform="translate(429,195.9375)"/>
<path d="M0 0 C8 1 8 1 12 6 C12.01458252 7.28575928 12.02916504 8.57151855 12.04418945 9.89624023 C12.10247569 14.69924738 12.17970561 19.5018005 12.26245117 24.30444336 C12.29555845 26.37695914 12.32363388 28.44956201 12.34643555 30.5222168 C12.38024376 33.51388411 12.43257168 36.50476349 12.48828125 39.49609375 C12.49467117 40.41208847 12.5010611 41.32808319 12.50764465 42.27183533 C12.73550371 52.40457842 15.21697908 58.0864756 22 66 C28.0605925 69.36561591 33.03949747 71.61330541 40 72 C50.20433627 69.56511751 50.20433627 69.56511751 58 63 C58.82011312 61.44148245 59.63076213 59.87798284 60.4375 58.3125 C60.88996094 57.44238281 61.34242188 56.57226562 61.80859375 55.67578125 C64.31340121 50.05023008 64.2030335 44.38134308 64.31640625 38.32421875 C64.3475779 36.93648003 64.3475779 36.93648003 64.37937927 35.52070618 C64.4445656 32.57637693 64.50361558 29.63196135 64.5625 26.6875 C64.60571464 24.68684017 64.64932986 22.68618894 64.69335938 20.68554688 C64.8002152 15.79045221 64.90156919 10.89527103 65 6 C69 1 69 1 72 0 C78.80769231 -0.11538462 78.80769231 -0.11538462 84 3 C86.58638956 9.4659739 86.07610663 15.66445173 86.10986328 22.55688477 C86.11979235 24.20046633 86.13334011 25.84403086 86.15087891 27.48754883 C86.45451055 56.71655934 86.45451055 56.71655934 80 68 C79.4225 69.010625 78.845 70.02125 78.25 71.0625 C69.83012186 82.05511868 59.8390997 88.93446273 46 91 C33.60247299 92.0677296 21.46132023 89.78514221 11.49609375 82.05859375 C2.00712961 73.92721613 -5.20564928 64.16865197 -6.20648193 51.35678101 C-6.49870625 43.82197301 -6.36441577 36.28740843 -6.25 28.75 C-6.22990578 26.44402591 -6.21166018 24.13803494 -6.1953125 21.83203125 C-6.15154617 16.22098156 -6.08486578 10.61057074 -6 5 C-4.02 3.35 -2.04 1.7 0 0 Z " fill="#F08341" transform="translate(244,250)"/>
<path d="M0 0 C8.75667769 6.80919257 15.20365078 16.95113359 17 28 C17.08241543 29.68696995 17.11788967 31.37669755 17.11352539 33.06567383 C17.11341209 34.53663261 17.11341209 34.53663261 17.11329651 36.03730774 C17.10813522 37.0833165 17.10297394 38.12932526 17.09765625 39.20703125 C17.0962413 40.28756271 17.09482635 41.36809418 17.09336853 42.48136902 C17.0877808 45.92510776 17.0752305 49.36878098 17.0625 52.8125 C17.05748342 55.15038968 17.05292079 57.48828039 17.04882812 59.82617188 C17.01582046 76.98417954 17.01582046 76.98417954 12 82 C9.36 82 6.72 82 4 82 C-1 77 -1 77 -1.04418945 73.01196289 C-1.10246299 68.09714523 -1.17969323 63.18277185 -1.26245117 58.26831055 C-1.29556435 56.14729053 -1.323638 54.02618527 -1.34643555 51.9050293 C-1.38023269 48.84387116 -1.43256049 45.78348462 -1.48828125 42.72265625 C-1.49467117 41.78478775 -1.5010611 40.84691925 -1.50764465 39.88063049 C-1.73219712 29.66780625 -4.15894793 23.98122741 -11 16 C-20.9254644 10.10557281 -20.9254644 10.10557281 -33 11 C-42.2347634 15.30955625 -48.23901957 19.2656977 -52 29 C-53.26805633 33.84267849 -53.22332524 38.70277608 -53.31640625 43.67578125 C-53.33718735 44.6009404 -53.35796844 45.52609955 -53.37937927 46.47929382 C-53.4445656 49.42362307 -53.50361558 52.36803865 -53.5625 55.3125 C-53.60571464 57.31315983 -53.64932986 59.31381106 -53.69335938 61.31445312 C-53.8002152 66.20954779 -53.90156919 71.10472897 -54 76 C-59 81 -59 81 -67 82 C-73 79 -73 79 -75 75 C-75.35865194 19.2158288 -75.35865194 19.2158288 -60.8125 3.3125 C-43.96642584 -12.60999554 -18.59233956 -12.69311603 0 0 Z " fill="#F08341" transform="translate(290,224)"/>
<path d="M0 0 C4.60144126 0.65734875 8.54645669 1.31566054 12.9375 2.5625 C13.89527344 2.83191406 14.85304688 3.10132813 15.83984375 3.37890625 C18 4 18 4 19.64453125 6.88671875 C20.36715839 8.15366244 21.08981627 9.42058859 21.8125 10.6875 C22.16892578 11.31333984 22.52535156 11.93917969 22.89257812 12.58398438 C24.8883458 16.08115525 26.91268705 19.55626286 29 23 C29 23.66 29 24.32 29 25 C29.99 25 30.98 25 32 25 C32.144375 24.05125 32.28875 23.1025 32.4375 22.125 C33 19 33 19 34 17 C38.95 17 43.9 17 49 17 C49 25.91 49 34.82 49 44 C43.39 44 37.78 44 32 44 C32 64.13 32 84.26 32 105 C21.44 105 10.88 105 0 105 C0 84.87 0 64.74 0 44 C-3.3 44 -6.6 44 -10 44 C-10 35.42 -10 26.84 -10 18 C-6.7 18 -3.4 18 0 18 C0 12.06 0 6.12 0 0 Z " fill="#204B9B" transform="translate(591,237)"/>
<path d="M0 0 C5.46161512 2.73080756 8.29782593 4.59565187 11 10 C11 37.39 11 64.78 11 93 C1.76 93 -7.48 93 -17 93 C-17.79800779 82.53201547 -18.13688822 72.15872472 -18.09765625 61.66015625 C-18.09578447 60.15701851 -18.09436418 58.65388015 -18.09336853 57.15074158 C-18.08960305 53.24974801 -18.079826 49.34879341 -18.06866455 45.44781494 C-18.05831986 41.44503303 -18.05384333 37.44224464 -18.04882812 33.43945312 C-18.01676198 9.87405376 -18.01676198 9.87405376 -14 4 C-9.53533724 0.07650849 -5.83287025 -0.11005416 0 0 Z " fill="#204B9B" transform="translate(566,249)"/>
<path d="M0 0 C3.2829526 19.6977156 -9.12727585 38.91364653 -15 58 C-16.32 58.99 -17.64 59.98 -19 61 C-24 59 -24 59 -35 40 C-42.92 38.02 -50.84 36.04 -59 34 C-59.33 32.02 -59.66 30.04 -60 28 C-53.90689832 24.04763312 -47.6628503 20.69896498 -41.15625 17.48046875 C-40.14655151 16.97703445 -39.13685303 16.47360016 -38.09655762 15.95491028 C-34.89957789 14.36197782 -31.69984966 12.77465819 -28.5 11.1875 C-26.32012787 10.10258444 -24.14043845 9.01730167 -21.9609375 7.93164062 C-6.0319272 0 -6.0319272 0 0 0 Z M-53 29 C-50.12314588 31.87685412 -46.54386034 32.07721693 -42.6875 33 C-41.50897461 33.28617188 -41.50897461 33.28617188 -40.30664062 33.578125 C-39.54931641 33.75859375 -38.79199219 33.9390625 -38.01171875 34.125 C-37.31522217 34.29257813 -36.61872559 34.46015625 -35.90112305 34.6328125 C-33.83178262 35.09481884 -33.83178262 35.09481884 -31 35 C-30.63261719 36.01126953 -30.63261719 36.01126953 -30.2578125 37.04296875 C-28.72738164 40.64090714 -26.84156692 43.93876063 -24.875 47.3125 C-24.50246094 47.95767578 -24.12992188 48.60285156 -23.74609375 49.26757812 C-22.83367787 50.84675945 -21.91724491 52.42361864 -21 54 C-20.34 54 -19.68 54 -19 54 C-17.0022961 47.48670072 -15.00890665 40.97209261 -13.01855469 34.45654297 C-12.34051932 32.23878874 -11.66148568 30.02133946 -10.98144531 27.80419922 C-10.00585409 24.62286166 -9.03382265 21.44045554 -8.0625 18.2578125 C-7.75626709 17.26194122 -7.45003418 16.26606995 -7.13452148 15.24002075 C-6.71408569 13.85881546 -6.71408569 13.85881546 -6.28515625 12.44970703 C-6.03644775 11.6369632 -5.78773926 10.82421936 -5.53149414 9.98684692 C-4.91386004 8.02077372 -4.91386004 8.02077372 -5 6 C-22.74197784 6 -37.1310926 21.0655463 -53 29 Z " fill="#F08341" transform="translate(642,193)"/>
<path d="M0 0 C1.8871875 0.0309375 1.8871875 0.0309375 3.8125 0.0625 C9.8125 3.0625 9.8125 3.0625 14.8125 9.0625 C16.09567892 12.91203676 15.87893637 16.00988135 15.8125 20.0625 C12.8125 26.0625 12.8125 26.0625 6.8125 31.0625 C4.06171116 31.97942961 2.45301087 32.17136083 -0.375 32.125 C-1.633125 32.104375 -2.89125 32.08375 -4.1875 32.0625 C-10.08864306 29.11192847 -14.00020545 26.62438365 -16.1875 20.0625 C-16.46408338 14.2763757 -15.94178808 11.57107616 -13.1875 6.0625 C-5.79843248 -0.09505627 -5.79843248 -0.09505627 0 0 Z " fill="#204B9B" transform="translate(562.1875,208.9375)"/>
<path d="M0 0 C7 4 7 4 11 10 C11 21 11 21 7 28 C-1 32 -1 32 -8 32 C-16 28 -16 28 -20 22 C-20 10 -20 10 -16 4 C-9 0 -9 0 0 0 Z " fill="#204B9B" transform="translate(458,210)"/>
<path d="M0 0 C5 4 5 4 7 8 C7 18 7 18 3 24 C-3 27 -3 27 -12 26 C-18 21 -18 21 -20 17 C-20 8.66666667 -20 8.66666667 -16 3 C-10.5207685 -1.56602625 -7.43710297 -0.92963787 0 0 Z " fill="#F08341" transform="translate(392,284)"/>
<path d="M0 0 C2.64 0 5.28 0 8 0 C11 3 11 3 12 8 C9 13 9 13 7 14 C5.02 14 3.04 14 1 14 C-0.32 12.68 -1.64 11.36 -3 10 C-3 4 -3 4 0 0 Z " fill="#F08341" transform="translate(265,252)"/>
</svg>
